<?xml version="1.0" standalone="no"?><!DOCTYPE svg PUBLIC "-//W3C//DTD SVG 1.1//EN" "http://www.w3.org/Graphics/SVG/1.1/DTD/svg11.dtd"><svg t="1589814644589" class="icon" viewBox="0 0 1024 1024" version="1.1" xmlns="http://www.w3.org/2000/svg" p-id="26693" xmlns:xlink="http://www.w3.org/1999/xlink" width="48" height="48"><defs><style type="text/css"></style></defs><path d="M931.84 203.264h-232.448c-18.432 0-32.768 14.848-32.768 32.768 0 18.432 14.848 32.768 32.768 32.768h155.136l-300.544 351.232-178.176-163.84-302.592 302.592c-12.8 12.8-12.8 33.792 0 46.592 6.656 6.656 14.848 9.728 23.552 9.728 8.704 0 16.896-3.072 23.552-9.728L377.856 547.84l181.76 167.424 338.944-396.288v139.776c0 18.432 14.848 32.768 32.768 32.768s32.768-14.848 32.768-32.768V236.032c0.512-17.92-14.336-32.768-32.256-32.768z" fill="#60D5AB" p-id="26694"></path></svg>