<?xml version="1.0" standalone="no"?><!DOCTYPE svg PUBLIC "-//W3C//DTD SVG 1.1//EN" "http://www.w3.org/Graphics/SVG/1.1/DTD/svg11.dtd"><svg t="1600789516190" class="icon" viewBox="0 0 1024 1024" version="1.1" xmlns="http://www.w3.org/2000/svg" p-id="2096" xmlns:xlink="http://www.w3.org/1999/xlink" width="128" height="128"><defs><style type="text/css"></style></defs><path d="M633.6 342.4c9.6-10.666667 19.2-22.4 26.666667-36.266667 32-55.466667 32-116.266667 0-135.466666-18.133333-10.666667-41.6-5.333333-65.066667 9.6-12.8-25.6-30.933333-41.6-51.2-41.6s-39.466667 16-51.2 41.6c-23.466667-16-48-20.266667-65.066667-9.6-32 19.2-32 78.933333 0 135.466666 7.466667 13.866667 17.066667 25.6 26.666667 36.266667-178.133333 45.866667-311.466667 221.866667-311.466667 384C142.933333 915.2 323.2 949.333333 545.066667 949.333333h16c214.4-7.466667 386.133333-38.4 386.133333-222.933333-2.133333-161.066667-135.466667-337.066667-313.6-384z m-61.866667 216.533333l34.133334-29.866666c6.4-5.333333 17.066667-5.333333 22.4 2.133333 5.333333 6.4 5.333333 17.066667-2.133334 22.4l-34.133333 29.866667c-3.2 2.133333-6.4 4.266667-10.666667 4.266666s-8.533333-2.133333-11.733333-5.333333c-5.333333-7.466667-4.266667-18.133333 2.133333-23.466667z m-114.133333-27.733333c5.333333-6.4 16-7.466667 22.4-2.133333l34.133333 29.866666c6.4 5.333333 7.466667 16 2.133334 22.4-3.2 3.2-7.466667 5.333333-11.733334 5.333334-3.2 0-7.466667-1.066667-10.666666-4.266667l-34.133334-29.866667c-6.4-4.266667-7.466667-14.933333-2.133333-21.333333zM661.333333 728.533333h-102.4v55.466667c0 8.533333-7.466667 16-16 16s-16-7.466667-16-16v-55.466667h-102.4c-8.533333 0-16-7.466667-16-16s7.466667-16 16-16h102.4V640h-69.333333c-8.533333 0-16-7.466667-16-16s7.466667-16 16-16h170.666667c8.533333 0 16 7.466667 16 16s-7.466667 16-16 16h-69.333334v56.533333H661.333333c8.533333 0 16 7.466667 16 16s-7.466667 16-16 16zM201.6 197.333333l-17.066667 1.066667-1.066666-17.066667c0-1.066667-1.066667-2.133333-3.2-2.133333h-1.066667c-1.066667 0-2.133333 1.066667-2.133333 3.2l1.066666 17.066667-17.066666 1.066666c-1.066667 0-2.133333 1.066667-2.133334 3.2v1.066667c0 1.066667 1.066667 2.133333 3.2 2.133333l17.066667-1.066666 1.066667 17.066666c0 1.066667 1.066667 2.133333 3.2 2.133334h1.066666c1.066667 0 2.133333-1.066667 2.133334-3.2l-1.066667-17.066667 17.066667-1.066667c1.066667 0 2.133333-1.066667 2.133333-3.2v-1.066666c-1.066667-1.066667-2.133333-2.133333-3.2-2.133334zM934.4 133.333333l-2.133333-3.2c-1.066667-1.066667-2.133333-2.133333-4.266667-1.066666l-20.266667 12.8-11.733333-19.2c-1.066667-1.066667-2.133333-2.133333-4.266667-1.066667l-3.2 2.133333c-1.066667 1.066667-2.133333 2.133333-1.066666 4.266667l12.8 20.266667-20.266667 12.8c-1.066667 1.066667-2.133333 2.133333-1.066667 4.266666l2.133334 3.2c1.066667 1.066667 2.133333 2.133333 4.266666 1.066667l20.266667-12.8 12.8 20.266667c1.066667 1.066667 2.133333 2.133333 4.266667 1.066666l3.2-2.133333c1.066667-1.066667 2.133333-2.133333 1.066666-4.266667l-12.8-20.266666 20.266667-12.8c1.066667-2.133333 1.066667-4.266667 0-5.333334zM106.666667 892.8l-9.6 6.4-6.4-9.6c-1.066667-1.066667-2.133333-1.066667-3.2-1.066667-1.066667 1.066667-1.066667 2.133333-1.066667 3.2l6.4 9.6-9.6 6.4c-1.066667 1.066667-1.066667 2.133333-1.066667 3.2 1.066667 1.066667 2.133333 1.066667 3.2 1.066667l10.666667-6.4 6.4 9.6c1.066667 1.066667 2.133333 1.066667 3.2 1.066667 1.066667-1.066667 1.066667-2.133333 1.066667-3.2l-6.4-9.6 9.6-6.4c1.066667-1.066667 1.066667-2.133333 1.066666-3.2-2.133333-1.066667-3.2-1.066667-4.266666-1.066667z" fill="#71BCFF" p-id="2097"></path><path d="M141.866667 133.333333m-19.2 0a19.2 19.2 0 1 0 38.4 0 19.2 19.2 0 1 0-38.4 0Z" fill="#71BCFF" p-id="2098"></path><path d="M132.266667 934.4m-9.6 0a9.6 9.6 0 1 0 19.2 0 9.6 9.6 0 1 0-19.2 0Z" fill="#71BCFF" p-id="2099"></path><path d="M817.066667 189.866667m-20.266667 0a20.266667 20.266667 0 1 0 40.533333 0 20.266667 20.266667 0 1 0-40.533333 0Z" fill="#71BCFF" p-id="2100"></path><path d="M906.666667 227.2m-12.8 0a12.8 12.8 0 1 0 25.6 0 12.8 12.8 0 1 0-25.6 0Z" fill="#71BCFF" p-id="2101"></path><path d="M238.933333 155.733333m-10.666666 0a10.666667 10.666667 0 1 0 21.333333 0 10.666667 10.666667 0 1 0-21.333333 0Z" fill="#71BCFF" p-id="2102"></path><path d="M748.8 498.133333c-4.266667 0-8.533333-2.133333-11.733333-5.333333-12.8-13.866667-26.666667-26.666667-41.6-38.4-19.2-16-39.466667-29.866667-60.8-41.6-7.466667-4.266667-10.666667-13.866667-6.4-21.333333s13.866667-10.666667 21.333333-6.4c22.4 12.8 44.8 27.733333 65.066667 44.8 16 12.8 30.933333 26.666667 44.8 41.6 6.4 6.4 5.333333 17.066667-1.066667 22.4-2.133333 2.133333-6.4 4.266667-9.6 4.266666z" fill="#FFFFFF" p-id="2103"></path><path d="M512 940.8c-206.933333 0-418.133333-28.8-418.133333-238.933333 0-166.4 132.266667-337.066667 299.733333-392.533334-4.266667-6.4-8.533333-12.8-12.8-20.266666-37.333333-65.066667-34.133333-133.333333 6.4-156.8 19.2-10.666667 42.666667-9.6 67.2 2.133333C469.333333 110.933333 490.666667 98.133333 512 98.133333s42.666667 12.8 57.6 35.2c24.533333-11.733333 49.066667-12.8 67.2-2.133333 40.533333 23.466667 43.733333 92.8 6.4 156.8-4.266667 6.4-8.533333 13.866667-12.8 20.266667 167.466667 55.466667 299.733333 226.133333 299.733333 392.533333 0 208-206.933333 232.533333-402.133333 238.933333-5.333333 0-10.666667 1.066667-16 1.066667z m-94.933333-785.066667c-5.333333 0-9.6 1.066667-13.866667 3.2-21.333333 11.733333-24.533333 61.866667 5.333333 113.066667 7.466667 12.8 14.933333 23.466667 24.533334 33.066667 4.266667 4.266667 5.333333 9.6 4.266666 14.933333s-6.4 9.6-11.733333 10.666667c-165.333333 42.666667-299.733333 208-299.733333 369.066666C125.866667 846.933333 237.866667 906.666667 512 906.666667h14.933333c229.333333-7.466667 371.2-44.8 371.2-206.933334C898.133333 538.666667 763.733333 373.333333 598.4 330.666667c-5.333333-1.066667-9.6-5.333333-11.733333-10.666667s0-11.733333 4.266666-14.933333c9.6-9.6 17.066667-21.333333 24.533334-33.066667 29.866667-51.2 26.666667-101.333333 5.333333-113.066667-11.733333-6.4-29.866667-3.2-48 9.6-4.266667 2.133333-8.533333 3.2-12.8 2.133334-4.266667-1.066667-8.533333-4.266667-10.666667-8.533334-9.6-20.266667-23.466667-32-37.333333-32s-26.666667 11.733333-37.333333 32c-2.133333 4.266667-5.333333 7.466667-10.666667 8.533334-4.266667 1.066667-9.6 0-12.8-2.133334-12.8-8.533333-24.533333-12.8-34.133333-12.8z" fill="#3A3A3A" p-id="2104"></path><path d="M462.933333 556.8c3.2 2.133333 6.4 4.266667 10.666667 4.266667s8.533333-2.133333 11.733333-5.333334c5.333333-6.4 5.333333-17.066667-2.133333-22.4l-34.133333-29.866666c-6.4-5.333333-17.066667-5.333333-22.4 2.133333-5.333333 6.4-5.333333 17.066667 2.133333 22.4l34.133333 28.8zM550.4 561.066667c3.2 0 7.466667-1.066667 10.666667-4.266667l34.133333-29.866667c6.4-5.333333 7.466667-16 2.133333-22.4-5.333333-6.4-16-7.466667-22.4-2.133333L539.733333 533.333333c-6.4 5.333333-7.466667 16-2.133333 22.4 4.266667 3.2 8.533333 5.333333 12.8 5.333334zM630.4 670.933333h-102.4v-55.466666H597.333333c8.533333 0 16-7.466667 16-16s-7.466667-16-16-16H426.666667c-8.533333 0-16 7.466667-16 16s7.466667 16 16 16h69.333333v55.466666h-102.4c-8.533333 0-16 7.466667-16 16s7.466667 16 16 16h102.4v55.466667c0 8.533333 7.466667 16 16 16s16-7.466667 16-16v-55.466667h102.4c8.533333 0 16-7.466667 16-16s-7.466667-16-16-16z" fill="#3A3A3A" p-id="2105"></path></svg>