<?xml version="1.0" standalone="no"?><!DOCTYPE svg PUBLIC "-//W3C//DTD SVG 1.1//EN" "http://www.w3.org/Graphics/SVG/1.1/DTD/svg11.dtd"><svg t="1604124627862" class="icon" viewBox="0 0 1024 1024" version="1.1" xmlns="http://www.w3.org/2000/svg" p-id="1400" xmlns:xlink="http://www.w3.org/1999/xlink" width="200" height="200"><defs><style type="text/css"></style></defs><path d="M303.941818 97.233455a29.789091 29.789091 0 0 1 30.254546 0 30.906182 30.906182 0 0 1 15.127272 26.670545v18.478545h314.228364v-18.478545c0-11.031273 5.771636-21.178182 15.173818-26.670545a29.789091 29.789091 0 0 1 30.254546 0 30.906182 30.906182 0 0 1 15.127272 26.670545v18.478545h70.423273C843.869091 142.149818 884.037818 182.551273 884.363636 232.727273v607.837091a91.554909 91.554909 0 0 1-26.484363 64.139636 88.436364 88.436364 0 0 1-63.301818 26.205091H229.469091a88.436364 88.436364 0 0 1-63.348364-26.205091A91.554909 91.554909 0 0 1 139.636364 840.564364V232.727273c0.325818-50.176 40.494545-90.577455 89.832727-90.344728h59.298909v-18.478545c0-11.031273 5.771636-21.178182 15.173818-26.670545z m-13.963636 106.728727h-60.509091A29.090909 29.090909 0 0 0 200.145455 232.727273v607.837091c0.139636 7.773091 3.258182 15.173818 8.79709 20.573091a28.392727 28.392727 0 0 0 20.48 8.145454H794.530909a28.858182 28.858182 0 0 0 28.672-28.718545L823.854545 232.727273a29.090909 29.090909 0 0 0-29.27709-28.765091h-70.423273V257.396364a30.533818 30.533818 0 0 1-30.254546 30.813091 30.533818 30.533818 0 0 1-30.254545-30.813091V203.962182H350.487273V257.396364a30.533818 30.533818 0 0 1-30.254546 30.813091 30.533818 30.533818 0 0 1-30.254545-30.813091V203.962182z m235.52 424.401454c16.756364 0 30.254545 13.777455 30.254545 30.813091a30.533818 30.533818 0 0 1-30.254545 30.813091H346.158545a30.533818 30.533818 0 0 1-30.254545-30.813091c0-17.035636 13.498182-30.813091 30.254545-30.813091zM677.934545 418.909091c16.756364 0 30.254545 13.777455 30.254546 30.813091a30.533818 30.533818 0 0 1-30.254546 30.766545H346.112a30.161455 30.161455 0 0 1-26.251636-15.36 31.278545 31.278545 0 0 1 0-30.813091A30.208 30.208 0 0 1 346.112 418.909091z" fill="#333333" p-id="1401"></path></svg>