<?xml version="1.0" standalone="no"?><!DOCTYPE svg PUBLIC "-//W3C//DTD SVG 1.1//EN" "http://www.w3.org/Graphics/SVG/1.1/DTD/svg11.dtd"><svg t="1586191832067" class="icon" viewBox="0 0 1024 1024" version="1.1" xmlns="http://www.w3.org/2000/svg" p-id="6391" width="64" height="64" xmlns:xlink="http://www.w3.org/1999/xlink"><defs><style type="text/css"></style></defs><path d="M515.215071 962.913658c-3.215071 0-6.430141 0-9.645212-1.607536l-417.959184-229.877551c-6.430141-3.215071-9.645212-9.645212-9.645212-16.075353s3.215071-12.860283 9.645212-16.075353l417.959184-218.624804c4.822606-3.215071 11.252747-3.215071 17.682888 0l430.819467 221.839875c6.430141 3.215071 9.645212 9.645212 9.645211 16.075353s-3.215071 12.860283-9.645211 16.075353l-429.211931 225.054945c-3.215071 1.607535-6.430141 3.215071-9.645212 3.215071zM135.836735 713.745683l379.378336 207.372056 387.416012-205.764521-387.416012-199.33438L135.836735 713.745683z" fill="#1FCF87" p-id="6392"></path><path d="M95.648352 538.524333l419.566719-218.624804 429.211931 221.839874-429.211931 226.662481z" fill="#1FCF87" p-id="6393"></path><path d="M515.215071 787.692308c-3.215071 0-6.430141 0-9.645212-1.607536l-417.959184-229.877551c-6.430141-3.215071-9.645212-9.645212-9.645212-16.075353s3.215071-12.860283 9.645212-16.075353l417.959184-218.624804c4.822606-3.215071 11.252747-3.215071 17.682888 0l430.819467 221.839875c6.430141 3.215071 9.645212 9.645212 9.645211 16.075353s-3.215071 12.860283-9.645211 16.075353l-429.211931 225.054945c-3.215071 1.607535-6.430141 3.215071-9.645212 3.215071zM135.836735 540.131868l379.378336 207.372057 387.416012-205.764522-387.416012-200.941915L135.836735 540.131868z" fill="#1FCF87" p-id="6394"></path><path d="M95.648352 368.125589L515.215071 147.89325 944.427002 369.733124 515.215071 596.395604z" fill="#1FCF87" p-id="6395"></path></svg>