<?xml version="1.0" standalone="no"?><!DOCTYPE svg PUBLIC "-//W3C//DTD SVG 1.1//EN" "http://www.w3.org/Graphics/SVG/1.1/DTD/svg11.dtd"><svg t="1587056666627" class="icon" viewBox="0 0 1024 1024" version="1.1" xmlns="http://www.w3.org/2000/svg" p-id="2209" width="64" height="64" xmlns:xlink="http://www.w3.org/1999/xlink"><defs><style type="text/css"></style></defs><path d="M849.408 715.776c-27.136-18.432-48.128-44.544-61.44-78.336-10.752-26.624-14.336-53.248-14.336-68.096V448h1.024c0-113.664-72.192-210.432-173.568-246.784v-43.008c0-48.64-39.424-88.064-88.064-88.064S424.96 110.08 424.96 158.208v42.496c-101.888 35.84-175.104 133.12-175.104 247.296h1.024v121.344c0 14.848-3.584 40.96-14.336 68.096-13.312 33.792-34.304 59.904-61.44 78.336-12.8 8.704-16.384 26.624-7.68 39.424 5.12 7.68 14.336 12.8 23.552 12.8H834.048c15.872 0 28.16-12.8 28.16-28.16 0-9.728-4.608-18.432-12.8-24.064zM481.792 158.208c0-16.896 13.824-31.232 31.232-31.232 16.896 0 31.232 13.824 31.232 31.232v29.696c-10.752-1.536-20.992-2.048-31.744-2.048-10.24 0-20.48 0.512-30.208 1.536v-29.184zM252.928 713.216c11.776-15.872 22.016-33.792 29.696-53.248 17.92-43.52 18.944-79.872 18.944-90.112V440.32c4.096-110.592 96.256-199.168 209.92-199.168 114.176 0 206.848 89.6 209.92 201.216v128.512c0 10.24 1.536 46.592 18.944 90.112 7.68 19.456 17.92 36.864 29.696 53.248h-517.12z" fill="#2E77ED" p-id="2210"></path><path d="M510.464 885.248c70.656 0 130.048-50.688 143.36-117.76H367.616c12.8 67.072 72.192 117.76 142.848 117.76z m82.944-117.76c-11.776 34.304-44.544 59.392-82.944 59.392s-71.168-25.088-82.944-59.392h165.888z" fill="#FFBB12" p-id="2211"></path></svg>