<?xml version="1.0" standalone="no"?><!DOCTYPE svg PUBLIC "-//W3C//DTD SVG 1.1//EN" "http://www.w3.org/Graphics/SVG/1.1/DTD/svg11.dtd"><svg t="1586417248721" class="icon" viewBox="0 0 1024 1024" version="1.1" xmlns="http://www.w3.org/2000/svg" p-id="14636" width="128" height="128" xmlns:xlink="http://www.w3.org/1999/xlink"><defs><style type="text/css"></style></defs><path d="M514.2 504.6m-447.8 0a447.8 447.8 0 1 0 895.6 0 447.8 447.8 0 1 0-895.6 0Z" fill="#FF0000" p-id="14637"></path><path d="M742.2 508.5c-11.2-10.8-27.8-10.3-28.3-10.3-21.3 0-37.9 15.6-37.9 35.4l-0.2 65c0.1 0.6 0.2 1.3 0.2 1.9 0 5.4-4.9 9.6-11.1 9.6-6.4 0-11.6-4.3-11.6-9.6 0-0.6 0.1-1.2 0.2-1.8l-0.2-7.9v-86.7c0-26.3-25.3-34.7-39-35.4-21.3 0-37.3 15.2-37.3 35.4l-0.2 75.4c0 0.6 0.1 5.8-4 9.1-0.2 0.2-3.3 2.6-7.4 2.2-5.1-0.4-9.7-4.9-11.4-11.3l-0.2-8V472c0-10-3.2-18.2-9.4-24.4-11.2-11-28-11-29-11-21 0-37.5 15.6-37.5 35.4v83.5c0 5.3-5.2 9.6-11.6 9.6s-11.5-10.7-11.4-11.3l-0.2-8V356.3c0-20.2-15.8-35.4-36.8-35.4-21.5 0-39.1 15.9-39.1 35.4V650l-87.7-78c-15.2-13.5-43.2-13-58.7 0.9-8.9 8-13.8 18-13.8 28.2 0 9.6 4.4 18.6 12.7 26.1l181.8 161.5c36.6 32.5 83.5 46.4 156.7 46.4 182.1 0 182.1-84.9 182.1-183.2V533.6c0-10.4-3.3-18.9-9.7-25.1z" fill="#FFFFFF" p-id="14638"></path><path d="M547 369.7c-6.6-102.4-61.7-179.6-128.1-179.6s-121.5 77.2-128.1 179.6l-0.9 13.8h47.8l0.8-12.1c5-73 41.2-130.2 82.4-130.2s77.5 57.2 82.4 130.2l0.8 12.1h43.7l-0.8-13.8z" fill="#999999" p-id="14639"></path></svg>