<?xml version="1.0" standalone="no"?><!DOCTYPE svg PUBLIC "-//W3C//DTD SVG 1.1//EN" "http://www.w3.org/Graphics/SVG/1.1/DTD/svg11.dtd"><svg t="1603174110605" class="icon" viewBox="0 0 1024 1024" version="1.1" xmlns="http://www.w3.org/2000/svg" p-id="3821" xmlns:xlink="http://www.w3.org/1999/xlink" width="64" height="64"><defs><style type="text/css"></style></defs><path d="M745.244444 1024H426.666667c-34.133333 0-73.955556-17.066667-91.022223-51.2L187.733333 722.488889c-28.444444-45.511111-17.066667-102.4 22.755556-136.533333l5.688889-5.688889c39.822222-34.133333 96.711111-28.444444 136.533333 0V307.2c0-56.888889 45.511111-102.4 102.4-102.4 28.444444 0 56.888889 11.377778 73.955556 28.444444 17.066667 17.066667 28.444444 45.511111 28.444444 73.955556v170.666667l216.177778 17.066666c45.511111 5.688889 79.644444 39.822222 79.644444 85.333334v341.333333c0 56.888889-51.2 102.4-108.088889 102.4z m-494.933333-398.222222c-22.755556 17.066667-28.444444 45.511111-11.377778 68.266666l147.911111 250.311112c5.688889 11.377778 22.755556 22.755556 39.822223 22.755555h324.266666c22.755556 0 45.511111-22.755556 45.511111-45.511111v-341.333333c0-17.066667-11.377778-28.444444-28.444444-28.444445l-216.177778-17.066666c-28.444444 0-56.888889-28.444444-56.888889-56.888889v-170.666667c0-11.377778-5.688889-22.755556-11.377777-34.133333-5.688889-5.688889-17.066667-11.377778-28.444445-11.377778-22.755556 0-45.511111 22.755556-45.511111 45.511111v460.8l-91.022222-130.844444c-17.066667-22.755556-45.511111-22.755556-68.266667-11.377778zM449.422222 0C312.888889 0 199.111111 108.088889 199.111111 244.622222c0 91.022222 51.2 176.355556 130.844445 216.177778V398.222222C284.444444 364.088889 256 307.2 256 244.622222 256 142.222222 341.333333 56.888889 449.422222 56.888889s193.422222 85.333333 193.422222 193.422222c0 56.888889-28.444444 113.777778-68.266666 147.911111v68.266667C648.533333 420.977778 699.733333 341.333333 699.733333 244.622222c0-136.533333-113.777778-244.622222-250.311111-244.622222z" fill="#666666" p-id="3822"></path></svg>