<?xml version="1.0" standalone="no"?><!DOCTYPE svg PUBLIC "-//W3C//DTD SVG 1.1//EN" "http://www.w3.org/Graphics/SVG/1.1/DTD/svg11.dtd"><svg t="1585934969958" class="icon" viewBox="0 0 1024 1024" version="1.1" xmlns="http://www.w3.org/2000/svg" p-id="5354" xmlns:xlink="http://www.w3.org/1999/xlink" width="64" height="64"><defs><style type="text/css"></style></defs><path d="M592.457143 146.285714v146.285715H438.857143v-146.285715H592.457143m7.314286-73.142857h-175.542858c-36.571429 0-65.828571 29.257143-65.828571 65.828572v160.914285c0 36.571429 29.257143 65.828571 65.828571 65.828572H599.771429c36.571429 0 65.828571-29.257143 65.828571-65.828572v-160.914285c0-36.571429-29.257143-65.828571-65.828571-65.828572z" p-id="5355"></path><path d="M994.742857 658.285714H906.971429v-146.285714c0-14.628571-14.628571-29.257143-29.257143-29.257143H541.257143V365.714286h-58.514286v124.342857H146.285714c-14.628571 0-29.257143 14.628571-29.257143 29.257143v146.285714h-87.771428c-14.628571-7.314286-29.257143 0-29.257143 21.942857v241.371429c0 14.628571 14.628571 29.257143 29.257143 29.257143h234.057143c14.628571 0 29.257143-14.628571 29.257143-29.257143v-241.371429c0-14.628571-14.628571-29.257143-29.257143-29.257143h-87.771429v-117.028571h307.2V658.285714h-87.771428c-21.942857 0-29.257143 7.314286-29.257143 29.257143v241.371429c0 14.628571 14.628571 29.257143 29.257143 29.257143H629.028571c14.628571-7.314286 29.257143-14.628571 29.257143-36.571429v-241.371429c0-7.314286-14.628571-21.942857-29.257143-21.942857H541.257143v-117.028571h307.2V658.285714H760.685714c-14.628571 0-29.257143 7.314286-29.257143 29.257143v241.371429c0 14.628571 14.628571 21.942857 29.257143 21.942857h234.057143c14.628571 0 29.257143-7.314286 29.257143-29.257143v-241.371429c0-7.314286-14.628571-21.942857-29.257143-21.942857zM219.428571 731.428571v146.285715h-146.285714v-146.285715h146.285714z m365.714286 0v146.285715h-146.285714v-146.285715h146.285714z m365.714286 146.285715H804.571429v-146.285715h146.285714v146.285715z" p-id="5356"></path></svg>