<?xml version="1.0" standalone="no"?><!DOCTYPE svg PUBLIC "-//W3C//DTD SVG 1.1//EN" "http://www.w3.org/Graphics/SVG/1.1/DTD/svg11.dtd"><svg t="1585408322656" class="icon" viewBox="0 0 1046 1024" version="1.1" xmlns="http://www.w3.org/2000/svg" p-id="3905" width="65.375" height="64" xmlns:xlink="http://www.w3.org/1999/xlink"><defs><style type="text/css"></style></defs><path d="M91.235639 875.141852h97.237984c50.419695 0 91.235639-40.815944 91.235638-91.235639V476.586166c0-50.419695-40.815944-91.235639-91.235638-91.235638H91.235639c-50.419695 0-91.235639 40.815944-91.235639 91.235638v308.520516c0 49.219226 40.815944 90.03517 91.235639 90.03517z m-6.002345-398.555686c0-3.601407 2.400938-6.002345 6.002345-6.002344h97.237984c3.601407 0 6.002345 2.400938 6.002344 6.002344v308.520516c0 3.601407-2.400938 6.002345-6.002344 6.002345H91.235639c-3.601407 0-6.002345-2.400938-6.002345-6.002345V476.586166zM476.586166 875.141852h97.237984c50.419695 0 91.235639-40.815944 91.235639-91.235639V91.235639C665.059789 40.815944 624.243845 0 573.82415 0h-97.237984c-50.419695 0-91.235639 40.815944-91.235638 91.235639v693.871043c0 49.219226 40.815944 90.03517 91.235638 90.03517z m-6.002344-783.906213c0-3.601407 2.400938-6.002345 6.002344-6.002345h97.237984c3.601407 0 6.002345 2.400938 6.002345 6.002345v693.871043c0 3.601407-2.400938 6.002345-6.002345 6.002345h-97.237984c-3.601407 0-6.002345-2.400938-6.002344-6.002345V91.235639zM954.372802 194.475967h-97.237984c-50.419695 0-91.235639 40.815944-91.235639 91.235639v499.395076c0 50.419695 40.815944 91.235639 91.235639 91.235639h97.237984c50.419695 0 91.235639-40.815944 91.235639-91.235639V284.511137c0-49.219226-40.815944-90.03517-91.235639-90.03517z m4.801876 589.430246c0 3.601407-2.400938 6.002345-6.002345 6.002345h-97.237984c-3.601407 0-6.002345-2.400938-6.002344-6.002345V284.511137c0-3.601407 2.400938-6.002345 6.002344-6.002345h97.237984c3.601407 0 6.002345 2.400938 6.002345 6.002345v499.395076zM993.988277 937.566237H43.216882c-24.009379 0-43.216882 19.207503-43.216882 43.216881s19.207503 43.216882 43.216882 43.216882h950.771395c24.009379 0 43.216882-19.207503 43.216881-43.216882s-19.207503-43.216882-43.216881-43.216881z" p-id="3906"></path></svg>