<?xml version="1.0" standalone="no"?><!DOCTYPE svg PUBLIC "-//W3C//DTD SVG 1.1//EN" "http://www.w3.org/Graphics/SVG/1.1/DTD/svg11.dtd"><svg t="1604111618208" class="icon" viewBox="0 0 1152 1024" version="1.1" xmlns="http://www.w3.org/2000/svg" p-id="1252" xmlns:xlink="http://www.w3.org/1999/xlink" width="225" height="200"><defs><style type="text/css"></style></defs><path d="M1088 330.88V128a64 64 0 0 0-64-64H128a64 64 0 0 0-64 64v202.88a192.064 192.064 0 0 1 0 362.24V896a64 64 0 0 0 64 64h896a64 64 0 0 0 64-64v-202.88a192.064 192.064 0 0 1 0-362.24zM1152 384a128 128 0 1 0 0 256v256a128 128 0 0 1-128 128H128a128 128 0 0 1-128-128v-256a128 128 0 1 0 0-256V128a128 128 0 0 1 128-128h896a128 128 0 0 1 128 128v256zM416 256a32 32 0 0 1 32 32v448a32 32 0 1 1-64 0v-448a32 32 0 0 1 32-32z" fill="#666666" p-id="1253"></path></svg>