<?xml version="1.0" standalone="no"?><!DOCTYPE svg PUBLIC "-//W3C//DTD SVG 1.1//EN" "http://www.w3.org/Graphics/SVG/1.1/DTD/svg11.dtd"><svg t="1600789576921" class="icon" viewBox="0 0 1024 1024" version="1.1" xmlns="http://www.w3.org/2000/svg" p-id="2879" xmlns:xlink="http://www.w3.org/1999/xlink" width="128" height="128"><defs><style type="text/css"></style></defs><path d="M650.24 883.2c25.6 20.48 58.88 33.28 94.72 33.28 79.36 0 145.92-64 145.92-145.92 0-20.48-2.56-38.4-10.24-53.76l-230.4 166.4z m-43.52-66.56l225.28-163.84c-23.04-17.92-53.76-28.16-87.04-28.16-79.36 0-145.92 64-145.92 145.92 0 15.36 2.56 30.72 7.68 46.08zM409.6 862.72h30.72v10.24c-2.56 7.68-2.56 12.8-2.56 20.48v46.08H409.6c-181.76 0-327.68-84.48-327.68-192v-76.8c0 107.52 145.92 192 327.68 192z m0-133.12h30.72v10.24c-2.56 7.68-2.56 12.8-2.56 20.48v46.08H409.6c-181.76 0-327.68-84.48-327.68-192v-76.8c0 107.52 145.92 192 327.68 192z m0-266.24c181.76 0 327.68-84.48 327.68-189.44v74.24c0 46.08-28.16 87.04-71.68 120.32-46.08 12.8-87.04 30.72-120.32 53.76-40.96 10.24-87.04 17.92-138.24 17.92-181.76 0-327.68-84.48-327.68-192v-76.8c2.56 107.52 148.48 192 330.24 192z m0 133.12c23.04 0 43.52-2.56 64-2.56-17.92 23.04-28.16 51.2-33.28 79.36H409.6c-181.76 0-327.68-84.48-327.68-192v-76.8c0 107.52 145.92 192 327.68 192zM409.6 25.6c181.76 0 327.68 84.48 327.68 192S588.8 409.6 409.6 409.6C227.84 409.6 81.92 325.12 81.92 217.6S227.84 25.6 409.6 25.6z m335.36 977.92c-128 0-232.96-104.96-232.96-232.96s104.96-232.96 232.96-232.96 232.96 104.96 232.96 232.96-104.96 232.96-232.96 232.96z" fill="#10385C" p-id="2880"></path></svg>