<?xml version="1.0" standalone="no"?><!DOCTYPE svg PUBLIC "-//W3C//DTD SVG 1.1//EN" "http://www.w3.org/Graphics/SVG/1.1/DTD/svg11.dtd"><svg t="1590418107448" class="icon" viewBox="0 0 1024 1024" version="1.1" xmlns="http://www.w3.org/2000/svg" p-id="1215" width="64" height="64" xmlns:xlink="http://www.w3.org/1999/xlink"><defs><style type="text/css"></style></defs><path d="M630.237809 241.919084 579.888262 241.919084 579.888262 191.569537 428.838616 191.569537 428.838616 241.919084 378.489069 241.919084 378.489069 292.26863 630.237809 292.26863Z" fill="#7baf41" p-id="1216"></path><path d="M680.587355 342.618177 328.139523 342.618177 328.139523 292.26863l-50.349546 0 0 492.009409L730.936902 784.278039 730.936902 292.26863l-50.349546 0L680.587355 342.618177zM655.413085 708.754222 353.3148 708.754222l0-50.349546 302.098286 0L655.413085 708.754222zM655.413085 581.478205 353.3148 581.478205l0-50.349546 302.098286 0L655.413085 581.478205zM655.413085 476.776564 353.3148 476.776564l0-50.349546 302.098286 0L655.413085 476.776564z" fill="#7baf41" p-id="1217"></path><path d="M504.363439 16.446196c-278.227991 0-503.776398 225.548407-503.776398 503.776398s225.548407 503.776398 503.776398 503.776398 503.776398-225.548407 503.776398-503.776398S782.59143 16.446196 504.363439 16.446196zM124.199844 520.193394l0.62329-1.350294c0.056388 1.028076 0.110762 2.057159 0.176213 3.083221L124.199844 520.193394zM781.286448 809.453315c0 13.903697-11.27158 25.175277-25.175277 25.175277L252.615707 834.628592c-13.903697 0-25.175277-11.27158-25.175277-25.175277L227.44043 267.09436c0-13.903697 11.27158-25.175277 25.175277-25.175277l75.524823 0 0-50.349546 50.349546 0 0-50.349546 251.748739 0 0 50.349546 50.349546 0 0 50.349546 75.524823 0c13.903697 0 25.175277 11.27158 25.175277 25.175277L781.288462 809.453315z" fill="#7baf41" p-id="1218"></path></svg>