<?xml version="1.0" standalone="no"?><!DOCTYPE svg PUBLIC "-//W3C//DTD SVG 1.1//EN" "http://www.w3.org/Graphics/SVG/1.1/DTD/svg11.dtd"><svg t="1589813267476" class="icon" viewBox="0 0 1024 1024" version="1.1" xmlns="http://www.w3.org/2000/svg" p-id="20524" xmlns:xlink="http://www.w3.org/1999/xlink" width="48" height="48"><defs><style type="text/css"></style></defs><path d="M512 512m-487.619048 0a487.619048 487.619048 0 1 0 975.238096 0 487.619048 487.619048 0 1 0-975.238096 0Z" fill="#E593AE" p-id="20525"></path><path d="M588.8 529.554286h-26.087619v112.883809h25.6c19.504762 0 33.889524-4.632381 42.666667-13.653333 8.777143-9.020952 13.165714-23.405714 13.165714-42.666667 0-19.504762-4.388571-34.133333-12.921905-43.154285-8.777143-9.020952-23.161905-13.409524-42.422857-13.409524zM419.108571 601.234286h44.373334l-22.186667-59.489524z" fill="#FFFFFF" p-id="20526"></path><path d="M717.04381 375.222857h-5.12l-62.902858-162.620952c-11.215238-29.257143-43.154286-42.179048-70.948571-28.769524L235.27619 348.891429c-13.165714 6.339048-23.649524 17.554286-29.257142 31.939047-6.095238 14.872381-6.339048 30.96381-0.487619 45.836191l62.902857 155.794285v150.918096c0 34.864762 25.35619 63.390476 56.807619 63.390476h391.801905c31.207619 0 56.807619-28.281905 56.807619-63.390476V438.613333c0-34.864762-25.35619-63.390476-56.807619-63.390476z m-448.609524 63.390476v40.96L240.152381 409.6a16.067048 16.067048 0 0 1 0.487619-11.459048 20.48 20.48 0 0 1 9.752381-10.483809l342.79619-165.059048c8.533333-4.144762 18.285714-0.975238 21.211429 6.826667l56.56381 146.041905H325.241905c-31.207619-0.24381-56.807619 28.281905-56.807619 63.146666z m245.028571 225.52381a16.091429 16.091429 0 0 1-13.165714 7.070476 16.091429 16.091429 0 0 1-15.116191-10.483809l-11.459047-31.451429h-64.853334l-11.459047 31.451429c-2.194286 6.339048-8.289524 10.48381-14.872381 10.483809-5.36381 0-10.24-2.681905-13.165714-6.826667a16.091429 16.091429 0 0 1-1.706667-14.872381l51.443809-133.851428c3.413333-8.777143 11.946667-14.628571 21.211429-14.628572 10.48381 0 20.23619 6.582857 24.137143 16.579048l50.712381 131.657143c1.950476 4.87619 1.219048 10.48381-1.706667 14.872381z m141.897143-16.091429c-14.384762 15.36-35.352381 23.161905-62.415238 23.161905h-36.571429c-14.140952 0-25.84381-11.459048-25.843809-25.843809V526.628571c0-14.140952 11.459048-25.84381 25.843809-25.843809h37.059048c27.062857 0 48.030476 7.801905 62.415238 23.161905 13.409524 14.384762 20.23619 35.108571 20.236191 61.683809-0.24381 26.575238-7.070476 47.299048-20.72381 62.415238z" fill="#FFFFFF" p-id="20527"></path></svg>