<?xml version="1.0" standalone="no"?><!DOCTYPE svg PUBLIC "-//W3C//DTD SVG 1.1//EN" "http://www.w3.org/Graphics/SVG/1.1/DTD/svg11.dtd"><svg t="1586798874752" class="icon" viewBox="0 0 1024 1024" version="1.1" xmlns="http://www.w3.org/2000/svg" p-id="616" width="64" height="64" xmlns:xlink="http://www.w3.org/1999/xlink"><defs><style type="text/css"></style></defs><path d="M273.42 306.77h280v64h-280zM272.42 435.89h280v64h-280zM272.42 565h280v64h-280zM271.42 694.12h280v64h-280z" p-id="617"></path><path d="M807.96 959.52H124.42V63.39h715.54v325.29h-64V127.39H188.42v768.13h619.54v64z" p-id="618"></path><path d="M917.47 427.89h-63.34l-38.77 71.43q-29.83 55.85-36.49 74.24h-1.27q-15.46-35.14-75.16-145.68h-67.61l92 158.05H619.92v49.5h125.32v68.21H619.92v50.13h125.32v99.31h62.19v-99.3h120.88v-50.13H807.43v-68.22h120.88v-49.5H824.56z" p-id="619"></path></svg>