<?xml version="1.0" standalone="no"?><!DOCTYPE svg PUBLIC "-//W3C//DTD SVG 1.1//EN" "http://www.w3.org/Graphics/SVG/1.1/DTD/svg11.dtd"><svg t="1589813385114" class="icon" viewBox="0 0 1024 1024" version="1.1" xmlns="http://www.w3.org/2000/svg" p-id="22694" xmlns:xlink="http://www.w3.org/1999/xlink" width="48" height="48"><defs><style type="text/css"></style></defs><path d="M514.865333 98.679223c224.087428 0 405.98432 181.898521 405.98432 405.981061 0 224.087428-181.896892 405.990838-405.98432 405.990837-224.080911 0-405.985949-181.903409-405.98595-405.990837 0.001629-224.08254 181.903409-405.981061 405.98595-405.981061m0-45.363016c-249.488436 0-451.348965 201.858899-451.348965 451.344077 0 249.496583 201.860529 451.352223 451.348965 451.352223s451.348965-201.85727 451.348964-451.352223c0-249.485177-201.858899-451.344076-451.348964-451.344077z" fill="#15B67E" p-id="22695"></path><path d="M514.865333 157.191646c191.877081 0 347.468638 156.041276 347.468637 347.468638 0 191.428991-156.049424 347.473526-347.468637 347.473526-191.428991 0-347.473526-156.046165-347.473526-347.473526 0.001629-191.427361 155.598075-347.468638 347.473526-347.468638m0-13.605646c-199.58749 0-361.074283 161.939772-361.074284 361.074284 0 199.1394 161.939772 361.08243 361.074284 361.08243 199.141029 0 361.080801-161.943031 361.080801-361.08243-0.003259-199.136141-161.485164-361.074283-361.080801-361.074284z" fill="#15B67E" p-id="22696"></path><path d="M246.799895 481.797911c-2.921548 25.387972-13.674081 50.922591-32.257601 76.610376l-11.511843-16.641252c13.853317-19.753442 22.065587-40.569265 24.633551-62.458876l19.135893 2.489752z m21.632162 44.109992c-1.249764 11.74485-3.897569 23.491329-7.940157 35.241066l32.591632 101.802818-18.236454 5.839837-25.917533-80.962554c-4.767679 9.038385-9.812359 17.429891-15.140558 25.172889l-11.184329-16.307222c15.233435-23.725965 24.284855-48.128139 27.159149-73.20815l18.66825 2.421316z m33.965232-69.20141l19.038127-6.094026 6.480198 20.240639 43.086717-13.793029 5.582388 17.43315-43.086717 13.794658 6.545375 20.442686 51.302246-16.424539 5.77303 18.036035-120.23969 38.493386-5.77466-18.036035 49.899317-15.974821-6.543745-20.442686-42.68588 13.665934-5.582389-17.434779 42.68588-13.665935-6.480197-20.240638z m-18.567226 111.77486l75.952091-24.315814-4.171311-13.025573 19.240175-6.159202 4.171312 13.025572 21.641938-6.928288 5.711113 17.835617-21.643568 6.928288 16.039997 50.101364c4.404319 13.758811-0.607773 22.950362-15.037905 27.571393l-28.456167 9.10845-10.245785-16.825377c9.47344-2.147574 18.350513-4.547707 26.636107-7.200401 6.010925-1.924343 8.09984-5.758365 6.260226-11.506954l-14.43339-45.089273-75.952091 24.315815-5.712742-17.835617z m31.627016 15.283947c15.83469 7.601238 27.973859 14.46272 36.422395 20.599111l-11.559096 14.967839c-9.455516-6.988577-21.682674-14.120542-36.678214-21.399155l11.814915-14.167795zM570.617521 386.305831l12.126134 37.875836-18.436872 5.903384-6.545375-20.441057-133.866518 42.856969 6.864741 21.44152-18.436872 5.903384-12.447129-38.876299 74.949998-23.994819c-3.368008-4.075176-6.542116-7.550726-9.525581-10.42828l19.214105-9.686893c4.322848 5.686671 7.640344 10.297926 9.950859 13.827246l76.15251-24.380991z m-51.445635 162.290097l-40.282488 12.895219 3.465774 10.822599-18.637291 5.96856-32.013188-100.00231 58.918149-18.86215-5.580759-17.43315 18.837709-6.030479 5.582388 17.43315 59.519405-19.054421 31.820916 99.399425-18.63729 5.966931-3.271873-10.219713-40.882113 13.08749 12.702947 39.677973-18.839338 6.030479-12.702948-39.679603z m-22.903108-71.544514l-40.280859 12.895219 6.030479 18.837709 40.280858-12.895219-6.030478-18.837709z m-28.92544 48.367663l5.966931 18.637291 40.282488-12.895219-5.966931-18.637291-40.282488 12.895219z m94.675741-48.647923l-6.030479-18.837709-40.882113 13.087491 6.030478 18.837709 40.882114-13.087491z m-29.590243 48.359516l40.882114-13.08749-5.965302-18.637291-40.883743 13.087491 5.966931 18.63729zM682.918683 449.998176l-15.052569 12.329811 16.807453 52.506387c4.363583 13.626828 0.061918 22.515307-12.895219 26.663806l-16.633105 5.324941-10.17409-17.288132a90.937855 90.937855 0 0 0 14.612626-3.353344c5.075639-1.62616 6.78164-5.043051 5.114745-10.253931l-13.279762-41.48337a567.796997 567.796997 0 0 1-17.306055 11.506955l-10.247414-16.825377c8.12754-4.51349 15.345865-8.888479 21.650085-13.115191l-14.369843-44.892113-21.040683 6.737646-5.839836-18.236453 21.042312-6.737646-11.355418-35.470815 18.436872-5.901754 11.355418 35.470814 18.234824-5.838207 5.838207 18.236454-18.234824 5.838207 12.510677 39.078347c4.027923-3.058419 9.046532-7.166183 15.052569-12.33144l5.77303 18.034405z m17.864946-35.988969l26.368882 82.365483c7.645232-5.10008 14.586556-10.560262 20.822341-16.388693l9.05305 16.545117c-12.680136 10.53908-27.444298 20.789752-44.285969 30.748759l-10.45598-16.095397c4.964839-3.358232 6.507898-7.974375 4.624291-13.853317l-48.950995-152.906275 18.63729-5.966931 18.283707 57.114382 25.651937-8.21227 5.901755 18.436872-25.650309 8.21227z m86.707884 89.341024c-12.960396 4.150129-21.684303-0.791897-26.174981-14.819562l-51.580877-161.123434 18.839339-6.030478 18.156612 56.713545c10.027442-7.773956 18.801862-16.25508 26.321629-25.438484l15.963414 11.902904c-11.775809 12.461794-23.859577 23.251804-36.254565 32.374919l26.109805 81.562179c1.539801 4.810044 4.515119 6.511157 8.925955 5.098451l8.213899-2.629881c3.473921-1.112893 5.5221-3.460885 6.13965-7.048866 0.760939-4.071917-1.375229-14.876592-6.398727-32.418913l19.166851-0.169459c5.880572 23.895424 7.544208 38.752464 4.99091 44.577635-2.237192 5.429223-7.164554 9.365898-14.778828 11.803509l-17.640086 5.645935z" fill="#15B67E" p-id="22697"></path></svg>