<?xml version="1.0" standalone="no"?><!DOCTYPE svg PUBLIC "-//W3C//DTD SVG 1.1//EN" "http://www.w3.org/Graphics/SVG/1.1/DTD/svg11.dtd"><svg t="1589812093467" class="icon" viewBox="0 0 1024 1024" version="1.1" xmlns="http://www.w3.org/2000/svg" p-id="6630" xmlns:xlink="http://www.w3.org/1999/xlink" width="48" height="48"><defs><style type="text/css"></style></defs><path d="M512 46.592C254.976 46.592 46.592 254.976 46.592 512c0 254.976 208.384 465.408 465.408 465.408 254.976 0 465.408-208.384 465.408-465.408 0-254.976-208.384-465.408-465.408-465.408z m132.608 359.424c0-9.728 8.192-17.92 17.92-17.92h63.488c9.728 0 17.92 8.192 17.92 17.92v246.784c0 9.728-8.192 17.92-17.92 17.92h-63.488c-9.728 0-17.92-8.192-17.92-17.92V406.016zM478.72 265.216c0-9.728 8.192-17.92 17.92-17.92h63.488c9.728 0 17.92 8.192 17.92 17.92v388.096c0 9.728-8.192 17.92-17.92 17.92H496.64c-9.728 0-17.92-8.192-17.92-17.92V265.216zM313.344 476.672c0-9.728 8.192-17.92 17.92-17.92h64.512c18.432 0 16.384 17.408 16.384 17.408v176.64c0 9.728-8.192 17.92-17.92 17.92H331.264c-9.728 0-17.92-8.192-17.92-17.92V476.672z m463.36 282.112c0 9.728-8.192 17.92-17.92 17.92H265.216c-9.728 0-17.92-8.192-17.92-17.92v-34.816c0-9.728 8.192-17.92 17.92-17.92h494.08c9.728 0 17.92 8.192 17.92 17.92v34.816z" fill="#6368DE" p-id="6631"></path></svg>