<?xml version="1.0" standalone="no"?><!DOCTYPE svg PUBLIC "-//W3C//DTD SVG 1.1//EN" "http://www.w3.org/Graphics/SVG/1.1/DTD/svg11.dtd"><svg t="1585995108315" class="icon" viewBox="0 0 1024 1024" version="1.1" xmlns="http://www.w3.org/2000/svg" p-id="2104" width="64" height="64" xmlns:xlink="http://www.w3.org/1999/xlink"><defs><style type="text/css"></style></defs><path d="M976.461346 98.761681H46.975763a46.310529 46.310529 0 0 1-40.681625-24.664834 51.785918 51.785918 0 0 1 0-49.483185A46.310529 46.310529 0 0 1 46.975763 0h929.485583a46.310529 46.310529 0 0 1 40.681625 24.562491c8.392184 15.351557 8.392184 34.285143 0 49.534356a46.310529 46.310529 0 0 1-40.681625 24.613662z m0 299.406526H511.718555a46.310529 46.310529 0 0 1-40.681625-24.56249 51.785918 51.785918 0 0 1 0-49.534356 46.310529 46.310529 0 0 1 40.681625-24.562491h464.742791a46.310529 46.310529 0 0 1 40.681625 24.562491c8.392184 15.351557 8.392184 34.182799 0 49.534356a46.310529 46.310529 0 0 1-40.681625 24.56249z m0 325.811204H511.718555c-25.790615 0-46.719904-22.106242-46.719904-49.38084 0-27.223427 20.929289-49.329669 46.719904-49.329669h464.742791c25.790615 0 46.719904 22.106242 46.719904 49.329669 0 27.274599-20.929289 49.380841-46.719904 49.38084z m0 200.747189c25.790615 0 46.719904 22.106242 46.719904 49.329669 0 27.274599-20.929289 49.380841-46.719904 49.380841H46.975763c-25.790615 0-46.719904-22.106242-46.719904-49.380841 0-27.223427 20.929289-49.329669 46.719904-49.329669h929.485583zM314.041677 348.838539v325.760032l-133.558543-81.107391L46.975763 511.718555 180.534306 429.843586l133.558543-81.056219z" fill="#666666" p-id="2105"></path></svg>