<?xml version="1.0" standalone="no"?><!DOCTYPE svg PUBLIC "-//W3C//DTD SVG 1.1//EN" "http://www.w3.org/Graphics/SVG/1.1/DTD/svg11.dtd"><svg t="1585407188817" class="icon" viewBox="0 0 1143 1024" version="1.1" xmlns="http://www.w3.org/2000/svg" p-id="10180" width="71.4375" height="64" xmlns:xlink="http://www.w3.org/1999/xlink"><defs><style type="text/css"></style></defs><path d="M1122.463584 2.819325a29.150753 29.150753 0 0 0-12.660363-2.726234c-16.623377 0-31.717403 12.381091-31.478026 12.381091-10.107013 5.066805-1011.632208 507.59813-1047.073247 526.176415-19.987948 10.452779-31.43813 28.326234-29.789091 46.611948 1.276675 15.067429 11.250701 26.92987 26.544208 31.810494 30.055065 9.468675 333.438338 104.886857 333.438338 104.886857l5.545558 1.688935 19.15013-57.317402-292.172468-91.096104L990.886234 109.953662c-95.138909 107.506701-483.101922 545.48613-500.988676 565.66026-23.099844 25.746286-33.871792 51.638857-33.778701 81.294961l0.319169 175.51626h-0.079792l0.079792 61.453299v2.260779a30.72 30.72 0 0 0 30.493922 27.767688c15.865351 0 29.323636-12.288 30.72-27.780987 0 0 0.625039-218.763636 0-234.855065-0.558545-14.309403 5.851429-30.400831 12.288-37.861402 6.503065-7.314286 448.764675-506.88 535.059948-604.452572-24.562701 121.869299-145.540987 721.215169-147.323013 729.979013-0.930909 4.654545-2.96561 4.654545-3.856623 4.654546a7.500468 7.500468 0 0 1-2.35387-0.438858c-8.564364-2.712935-308.822442-93.383481-321.575896-97.226805l-5.412572-1.649039-19.708675 57.849351 5.824831 1.821922c2.96561 0.891013 297.438753 90.564156 326.709195 99.02213 5.824831 1.688935 11.756052 2.579948 17.740467 2.579948 30.999273 0 56.918442-22.195532 63.035844-53.806546 2.407065-12.527377 31.065766-154.225039 64.232728-318.370909 45.694338-225.758753 97.412987-481.678961 98.729558-489.711376l0.704831-3.803429c2.446961-13.165714 6.542961-34.935688-19.283117-47.037506z" p-id="10181"></path></svg>