<?xml version="1.0" standalone="no"?><!DOCTYPE svg PUBLIC "-//W3C//DTD SVG 1.1//EN" "http://www.w3.org/Graphics/SVG/1.1/DTD/svg11.dtd"><svg t="1589815115624" class="icon" viewBox="0 0 1024 1024" version="1.1" xmlns="http://www.w3.org/2000/svg" p-id="2499" xmlns:xlink="http://www.w3.org/1999/xlink" width="48" height="48"><defs><style type="text/css"></style></defs><path d="M976 480c-26.512 0-48 21.488-48 48l0 76.112L689.376 365.488l0 0-95.44-95.44C585.248 261.376 573.248 256 560 256s-25.248 5.376-33.936 14.064L304 492.128 81.936 270.064C73.248 261.376 61.248 256 48 256c-26.512 0-48 21.488-48 48 0 13.248 5.376 25.264 14.064 33.936l256 256C278.752 602.624 290.752 608 304 608c13.248 0 25.248-5.376 33.936-14.064L560 371.888l61.488 61.488 4.768 4.768 27.808 27.808L860.112 672 784 672c-26.512 0-48 21.488-48 48 0 26.512 21.488 48 48 48l192 0c26.512 0 48-21.488 48-48L1024 528C1024 501.488 1002.512 480 976 480z" p-id="2500" fill="#F56C6C"></path></svg>