<?xml version="1.0" standalone="no"?><!DOCTYPE svg PUBLIC "-//W3C//DTD SVG 1.1//EN" "http://www.w3.org/Graphics/SVG/1.1/DTD/svg11.dtd"><svg t="1586192788979" class="icon" viewBox="0 0 1170 1024" version="1.1" xmlns="http://www.w3.org/2000/svg" p-id="11416" width="73.125" height="64" xmlns:xlink="http://www.w3.org/1999/xlink"><defs><style type="text/css"></style></defs><path d="M1088.88320001 920.75326419h-72.26400001V388.40446419c0-44.3616-36-80.29440001-80.3616-80.2944h-276.6V121.33726419C659.6576 77.0428642 623.72960002 41.11486418 579.3008 41.11486418H216.4448c-44.3616 0-80.3616 35.928-80.3616 80.29440001v799.416H72.18079998A40.2528 40.2528 0 0 0 32 960.9340642C32 983.08126418 50.1008 1001.11486419 72.18079998 1001.11486419h1016.70240003a40.1856 40.1856 0 0 0 0-80.2944v-0.0672z m-324.18240001-431.4192c0-5.6208 4.4544-10.008 10.08-10.008h86.39040001a9.936 9.936 0 0 1 10.01279999 10.008v36.1344a9.936 9.936 0 0 1-10.08 10.08h-86.3904a9.936 9.936 0 0 1-10.0128-9.87359999v-36.34080001z m0 210.9792c0-5.6208 4.4544-10.008 10.08-10.008h86.39040001a9.936 9.936 0 0 1 10.01279999 10.008v36.13440001a9.936 9.936 0 0 1-9.8016 10.08h-86.6688a9.94080001 9.94080001 0 0 1-10.0128-9.8736v-36.34080001zM432.4976 282.74206419c0-5.5536 4.4544-9.94080001 10.08-9.94079999h86.3952a9.936 9.936 0 0 1 10.008 10.008v36.13439999a9.936 9.936 0 0 1-9.8736 10.008H442.5056a9.936 9.936 0 0 1-10.008-9.8736V282.74206419z m0 206.592c0-5.6208 4.4544-10.008 10.08-10.008h86.3952a9.936 9.936 0 0 1 10.008 10.008v36.1344a9.936 9.936 0 0 1-10.08 10.08H442.5056a9.94080001 9.94080001 0 0 1-10.0128-9.87359999v-36.34080001z m0 210.9792c0-5.6208 4.4544-10.008 10.08-10.008h86.3952a9.936 9.936 0 0 1 10.008 10.008v36.13440001a9.936 9.936 0 0 1-9.8016 10.08H442.5056a9.94560001 9.94560001 0 0 1-10.0128-9.8736v-36.34080001zM256.76 282.74206419c0-5.5536 4.3872-9.94080001 10.008-9.94079999h86.4a9.888 9.888 0 0 1 10.008 10.008v36.13439999a9.936 9.936 0 0 1-9.8736 10.008H266.7728a9.936 9.936 0 0 1-10.008-9.8736V282.74206419z m0 206.592a9.888 9.888 0 0 1 10.008-10.008h86.4a9.888 9.888 0 0 1 10.008 10.008v36.1344a9.936 9.936 0 0 1-9.80159999 10.08H266.7728a9.936 9.936 0 0 1-10.008-9.87359999v-36.34080001z m0 210.9792a9.888 9.888 0 0 1 10.008-10.008h86.4a9.888 9.888 0 0 1 10.008 10.008v36.13440001a9.936 9.936 0 0 1-9.80159999 10.08H266.7728a9.936 9.936 0 0 1-10.008-9.8736v-36.34080001z" fill="#18A40B" p-id="11417"></path></svg>