<?xml version="1.0" standalone="no"?><!DOCTYPE svg PUBLIC "-//W3C//DTD SVG 1.1//EN" "http://www.w3.org/Graphics/SVG/1.1/DTD/svg11.dtd"><svg t="1586192192844" class="icon" viewBox="0 0 1024 1024" version="1.1" xmlns="http://www.w3.org/2000/svg" p-id="9676" width="64" height="64" xmlns:xlink="http://www.w3.org/1999/xlink"><defs><style type="text/css"></style></defs><path d="M604.63821 752.720955l-94.330104 270.191113-91.962253-270.191113v-208.626961h186.292357z" fill="#FEE1B9" p-id="9677"></path><path d="M512.739954 1022.912068l94.330104-270.191113v-208.626961H512.739954z" fill="#FFD9AC" p-id="9678"></path><path d="M249.588401 366.889069a53.820636 53.820636 0 0 1 37.885632-62.204112c23.9985-3.391788 46.013124 19.1988 49.340916 50.364852a53.820636 53.820636 0 0 1-37.885632 62.204113c-24.31848 3.391788-46.269108-19.262796-49.340916-50.364853z" fill="#FEE1B9" p-id="9679"></path><path d="M723.926755 417.381914a50.492844 50.492844 0 0 1-36.157741-61.180177c4.031748-31.102056 26.686332-54.460596 50.748829-51.708768a50.492844 50.492844 0 0 1 36.15774 61.180176c-4.031748 31.35804-26.686332 54.332604-50.748828 51.708769z" fill="#FFD9AC" p-id="9680"></path><path d="M511.84401 108.729204s-198.387601 8.447472-198.387601 114.296857v215.154553c0 41.5974 67.259796 159.990001 127.992 165.365664 30.462096 2.367852 70.011624 5.75964 70.011625 5.75964s39.933504-3.391788 70.011624-5.75964c60.540216-5.055684 127.160052-123.768264 127.160053-165.365664V228.849697c0.703956-105.5934-196.787701-120.120492-196.787701-120.120493z" fill="#FEE1B9" p-id="9681"></path><path d="M511.84401 108.729204s-198.387601 8.447472-198.387601 114.296857v215.154553c0 41.5974 67.259796 159.990001 127.992 165.365664 30.462096 2.367852 70.011624 5.75964 70.011625 5.75964s39.933504-3.391788 70.011624-5.75964c60.540216-5.055684 127.160052-123.768264 127.160053-165.365664V228.849697c0.703956-105.5934-196.787701-120.120492-196.787701-120.120493z" fill="#FEE1B9" p-id="9682"></path><path d="M715.607275 228.785701v209.394913c0 41.5974-67.323792 159.990001-127.992001 165.365664-30.462096 2.367852-70.011624 5.75964-70.011624 5.75964v-500.448722s198.003625 14.3991 198.003625 119.928505z" fill="#FFD9AC" p-id="9683"></path><path d="M491.429286 1022.912068V690.516843a125.496156 125.496156 0 0 1-86.778577-74.875321c-7.423536-27.710268-7.423536-21.630648-7.423536 6.783576 0 85.562652-201.203425 48.700956-255.664021 114.616837-42.941316 59.51628-72.699456 286.062121-72.699456 286.062121z" fill="#FEE1B9" p-id="9684"></path><path d="M532.194738 1022.912068v-350.250109s67.643772-1.343916 80.506968-34.173865c4.735704-11.83926 12.7992-44.285232 12.7992-15.871008 0 85.562652 201.907381 47.997 256.303981 113.976877 42.941316 59.51628 72.699456 286.062121 72.699456 286.062121z" fill="#FFD9AC" p-id="9685"></path><path d="M373.100681 661.462659s-195.443785 25.5984-238.769077 79.803012C99.51778 785.230923 75.51928 972.931192 63.936004 1023.936004h427.813262v-330.731329z" fill="#FFC43A" p-id="9686"></path><path d="M651.227298 661.462659s196.467721 26.366352 239.729017 80.506968c34.813824 43.965252 57.5964 230.961565 68.987688 282.030373H532.514718v-330.731329z" fill="#FFA710" p-id="9687"></path><path d="M508.260234 913.862884l0.31998-233.009437-120.696457-24.702456 120.696457 367.593025" fill="#D0D4D7" p-id="9688"></path><path d="M525.795138 750.033123l27.390288-27.390288-41.27742-41.27742-40.893444 41.27742 27.390288 27.390288-37.181676 201.203425L511.972002 1023.936004l51.1968-72.699456z" fill="#436B85" p-id="9689"></path><path d="M554.529342 722.642835l-41.27742-41.27742-0.31998 0.63996v340.842697l0.31998 1.023936 51.1968-72.699456-37.181676-201.203425z" fill="#315D76" p-id="9690"></path><path d="M516.259734 684.245235l97.017936-49.020937 50.044872 29.438161-81.530904 116.344728z" fill="#D0D4D7" p-id="9691"></path><path d="M508.068246 684.245235l-97.081933-49.020937-50.044872 29.438161 98.425849 116.344728z" fill="#FFFFFF" p-id="9692"></path><path d="M276.722705 348.458221h20.542716l27.51828-175.861008a54.780576 54.780576 0 0 0-75.259296 46.653084 194.035873 194.035873 0 0 0 27.1983 129.207924z m460.451222 0h-20.542716l-27.518281-175.861008a54.780576 54.780576 0 0 1 75.259297 46.653084 194.035873 194.035873 0 0 1-27.262296 129.207924z" fill="#61402F" p-id="9693"></path><path d="M298.929317 192.243985a389.799638 389.799638 0 0 0 208.370977 62.588088c121.080432 0 235.505281-34.493844 287.598025-128.503969A508.192238 508.192238 0 0 1 589.471158 33.021936c-141.879133-99.83376-407.590526 48.31698-290.541841 159.222049z" fill="#61402F" p-id="9694"></path></svg>