<?xml version="1.0" standalone="no"?><!DOCTYPE svg PUBLIC "-//W3C//DTD SVG 1.1//EN" "http://www.w3.org/Graphics/SVG/1.1/DTD/svg11.dtd"><svg t="1585934744762" class="icon" viewBox="0 0 1024 1024" version="1.1" xmlns="http://www.w3.org/2000/svg" p-id="3219" width="64" height="64" xmlns:xlink="http://www.w3.org/1999/xlink"><defs><style type="text/css"></style></defs><path d="M431.5 743.3c0-6.4 0.2-12.8 0.6-19.2H134.6V695c128.1-2 220.6-79.9 220.6-199.8 0-77.3-41-119.2-70.8-152.1-27.8-30.6-44.5-49-44.5-94.5-1.9-30.9 11.5-60.7 35.8-79.8 32.6-22 71.4-33 110.7-31.1 45.9 0 85.2 11.1 111.1 31.1 24.3 19.1 37.7 48.9 35.8 79.8 0 45.8-16.9 64.6-45 95.6-29.7 32.9-70.4 74.8-70.4 151-1.1 44.5 13.7 87.6 41.2 121.8 11.3-24.7 25.9-47.7 43.2-68.3-7.9-16.5-11.8-34.8-11.1-53.5 0-102.9 115.4-108 115.4-246.6 0-122.4-98.4-184.7-219.7-184.7h-0.4c-121.4 0-219.7 62.4-219.7 184.7 0 138.5 115.4 142 115.4 246.6 0 84.4-67.9 126-151.6 126 0 0-4 0.1-22.5 0.1-30.6 0-46.5 16.7-46.5 48v128.6h375c-3.4-17.7-5.1-36-5.1-54.6zM449.9 847.5H62.3v74.3h427.4c-16.5-22.6-30-47.5-39.8-74.3zM735.9 640.9c-51.1 0-93 41.8-93 93 0 51.1 41.8 93 93 93 51.1 0 93-41.8 93-93-0.1-51.1-41.9-93-93-93z" p-id="3220"></path><path d="M821.9 526.3c-84-34.8-180.6-15.6-244.9 48.7-64.3 64.3-83.5 160.9-48.7 244.9S645 958.6 735.9 958.6C860 958.6 960.6 858 960.6 734c0-90.9-54.7-172.9-138.7-207.7z m76.7 230.8H873c-2.3 23.2-11.6 41.8-23.2 58.1l18.6 18.6c9.3 9.3 9.3 23.2 0 32.5s-23.2 9.3-32.5 0l-18.6-18.6c-16.3 11.6-34.9 20.9-58.1 23.2v25.6c0 13.9-11.6 23.2-23.2 23.2s-23.2-11.6-23.2-23.2v-25.6c-23.2-2.3-41.8-11.6-58.1-23.2l-18.6 18.6c-9.3 9.3-23.2 9.3-32.5 0s-9.3-23.2 0-32.5l18.6-18.6c-11.6-16.3-18.6-34.9-23.2-58.1h-25.6c-13.9 0-23.2-11.6-23.2-23.2s9.3-23.2 23.2-23.2H599c4.7-23.2 11.6-41.8 23.2-58.1L603.6 634c-9.3-9.3-9.3-25.6 0-32.5 9.3-7 23.2-7 32.5 0l18.6 18.6c16.3-11.6 34.9-18.6 58.1-23.2v-25.6c0-13.9 11.6-23.2 23.2-23.2s23.2 11.6 23.2 23.2v25.6c23.2 2.3 41.8 11.6 58.1 23.2l18.6-18.6c9.3-9.3 23.2-9.3 32.5 0s9.3 23.2 0 32.5l-18.6 18.6c11.6 16.3 18.6 34.9 23.2 58.1h25.6c13.9 0 23.2 11.6 23.2 23.2s-11.6 23.2-23.2 23.2z" p-id="3221"></path></svg>