<?xml version="1.0" standalone="no"?><!DOCTYPE svg PUBLIC "-//W3C//DTD SVG 1.1//EN" "http://www.w3.org/Graphics/SVG/1.1/DTD/svg11.dtd"><svg t="1585406867226" class="icon" viewBox="0 0 1024 1024" version="1.1" xmlns="http://www.w3.org/2000/svg" p-id="7468" width="64" height="64" xmlns:xlink="http://www.w3.org/1999/xlink"><defs><style type="text/css"></style></defs><path d="M210.823529 236.544a60.235294 60.235294 0 0 0-60.235294 60.235294v421.647059a60.235294 60.235294 0 0 0 60.235294 60.235294h602.352942a60.235294 60.235294 0 0 0 60.235294-60.235294v-421.647059a60.235294 60.235294 0 0 0-60.235294-60.235294H210.823529z m0-60.235294h602.352942a120.470588 120.470588 0 0 1 120.470588 120.470588v421.647059a120.470588 120.470588 0 0 1-120.470588 120.470588H210.823529a120.470588 120.470588 0 0 1-120.470588-120.470588v-421.647059a120.470588 120.470588 0 0 1 120.470588-120.470588z m135.529412 366.832941l-28.611765 92.882824h-50.477176l93.424941-286.117647h48.790588l94.268236 286.117647h-51.260236l-28.551529-92.822589H346.352941z m62.945883-47.706353l-24.094118-78.607059-24.214588 78.607059h48.308706z m354.665411-0.240941a140.950588 140.950588 0 0 1-140.468706 141.131294H524.830118V350.147765H623.435294a140.950588 140.950588 0 0 1 140.468706 141.131294v3.915294zM572.355765 397.914353V588.498824h51.2c51.2 0 92.882824-41.803294 92.882823-93.364706v-3.915294c0-51.501176-41.682824-93.364706-92.943059-93.364706h-51.139764zM120.470588 899.072h783.058824a30.117647 30.117647 0 1 1 0 60.235294h-783.058824a30.117647 30.117647 0 1 1 0-60.235294z" p-id="7469"></path></svg>