<?xml version="1.0" standalone="no"?><!DOCTYPE svg PUBLIC "-//W3C//DTD SVG 1.1//EN" "http://www.w3.org/Graphics/SVG/1.1/DTD/svg11.dtd"><svg t="1585848392511" class="icon" viewBox="0 0 1321 1024" version="1.1" xmlns="http://www.w3.org/2000/svg" p-id="2133" width="82.5625" height="64" xmlns:xlink="http://www.w3.org/1999/xlink"><defs><style type="text/css"></style></defs><path d="M524.316015 592.689193a302.683518 302.683518 0 0 0 184.88522-281.817901 297.136962 297.136962 0 0 0-290.533918-302.419396 296.87284 296.87284 0 0 0-290.533918 302.419396 302.683518 302.683518 0 0 0 184.885221 281.817901A434.480268 434.480268 0 0 0 0.034354 1015.283982h57.842661c0-207.59969 162.170751-376.637606 361.846789-376.637606s361.582667 169.037916 361.582667 376.637606h57.842662a434.480268 434.480268 0 0 0-314.833118-422.594789zM187.032548 310.871292a237.709569 237.709569 0 0 1 232.691256-242.199639 237.709569 237.709569 0 0 1 232.691256 242.199639 237.709569 237.709569 0 0 1-232.691256 242.463761 237.709569 237.709569 0 0 1-232.691256-242.463761z m1056.486974 713.128708h-259.10343v-55.201444h260.159917a24.035079 24.035079 0 0 0 23.506836-24.563323V79.500645a24.035079 24.035079 0 0 0-23.506836-24.563322H633.926538V0h610.649471A79.236523 79.236523 0 0 1 1320.643072 79.236523v865.262832a79.236523 79.236523 0 0 1-76.067063 79.236523zM757.271392 181.451638h410.973434v62.332731H757.271392z m0 194.921847h410.973434v62.332731H757.271392v-62.332731z m108.025794 207.863812h302.94764v62.332731H865.297186z m0 0" p-id="2134"></path></svg>