<?xml version="1.0" standalone="no"?><!DOCTYPE svg PUBLIC "-//W3C//DTD SVG 1.1//EN" "http://www.w3.org/Graphics/SVG/1.1/DTD/svg11.dtd"><svg t="1587109321301" class="icon" viewBox="0 0 1024 1024" version="1.1" xmlns="http://www.w3.org/2000/svg" p-id="8742" width="48" height="48" xmlns:xlink="http://www.w3.org/1999/xlink"><defs><style type="text/css"></style></defs><path d="M905.1 505.7c-4.3-218-184.6-391.2-402.6-386.9S111.2 303.4 115.6 521.4s184.6 391.2 402.6 386.9 391.2-184.6 386.9-402.6z m-272.2 208c8.3 8.3 8.3 21.8 0 30-8.3 8.3-21.8 8.3-30 0l-215-215c-4.2-4.2-6.2-9.7-6.2-15.2s2-11 6.2-15.2l215-215c8.3-8.3 21.8-8.3 30 0 8.3 8.3 8.3 21.8 0 30L432.7 513.5l200.2 200.2z" fill="#3E8EF7" p-id="8743"></path></svg>