<?xml version="1.0" standalone="no"?><!DOCTYPE svg PUBLIC "-//W3C//DTD SVG 1.1//EN" "http://www.w3.org/Graphics/SVG/1.1/DTD/svg11.dtd"><svg t="1589813162845" class="icon" viewBox="0 0 1024 1024" version="1.1" xmlns="http://www.w3.org/2000/svg" p-id="17633" xmlns:xlink="http://www.w3.org/1999/xlink" width="48" height="48"><defs><style type="text/css"></style></defs><path d="M252.928 640.512c56.32-20.992 86.528-31.232 97.28-34.816 10.24-2.56 19.456-7.168 28.16-12.8 5.12-3.072 9.216-6.656 13.312-10.752v-2.048c-2.048-4.608-3.072-9.216-3.072-14.336-0.512-2.56-0.512-5.12 0-7.68l-12.288-11.776c-8.704-8.192-15.36-17.92-20.48-28.672-3.072-7.68-6.144-14.848-8.704-22.528v-5.632c-6.144-5.12-11.264-11.264-15.872-17.92-7.168-10.24-11.776-21.504-14.848-33.28-5.12-14.848-6.656-30.208-5.12-46.08 1.024-9.216 3.072-18.432 6.144-27.136 1.536-4.608 3.072-8.704 5.12-12.8 0-16.384 1.024-33.28 3.584-49.664 2.048-16.896 5.12-33.792 9.216-50.688h-6.144c-7.68 0-15.872 1.024-23.552 2.56-8.192 1.536-15.872 4.096-23.552 7.168-8.192 4.096-16.384 8.704-23.552 14.848-8.192 6.656-15.36 14.848-20.992 23.552-6.656 10.752-11.776 22.528-15.36 34.816-3.072 11.776-5.632 24.064-7.168 36.352-1.536 13.312-2.048 27.136-2.048 40.448-5.12 7.168-8.192 15.36-8.704 23.552-1.024 5.12-1.024 10.752 0 16.384 1.536 5.12 3.584 9.728 6.144 13.824l6.144 7.68c2.048 1.536 4.608 3.072 7.168 3.584l4.608 16.384c2.048 4.608 3.584 9.216 5.632 13.824 1.536 4.096 4.096 7.168 6.656 10.24 5.12 4.608 10.24 9.216 14.848 14.336 5.12 5.12 7.68 12.288 7.68 19.456v14.848c0 4.608-0.512 9.216-2.048 13.312-2.048 4.608-4.608 9.216-7.68 12.8-4.608 5.12-10.24 9.728-16.384 13.312-9.728 6.144-19.968 10.752-31.232 13.824-8.192 2.048-86.528 34.816-105.472 41.472l50.688 109.568h2.56c0-7.68 2.048-16.384 3.584-28.16v-3.072c3.072-26.624 15.872-51.2 35.84-69.12 16.384-12.8 35.328-23.04 55.296-29.184h4.096z m597.504-20.992c-9.216-2.56-17.92-5.632-26.624-9.216-7.68-3.072-14.848-7.68-20.992-13.312-5.12-4.096-8.704-9.728-11.776-15.36-2.048-5.12-3.584-10.752-3.584-16.384-0.512-9.216 0.512-18.432 3.584-26.624 1.024-3.072 3.072-5.632 5.12-7.68 2.048-2.048 4.608-4.096 7.168-6.144l8.192-7.168c3.072-3.072 5.632-6.656 7.168-10.752 2.048-4.096 4.096-8.704 5.632-13.312 0-5.12 3.072-10.752 4.608-16.384 3.584-1.024 6.656-3.072 9.728-5.632 2.56-3.072 5.12-6.656 6.656-10.752 2.56-5.632 4.096-11.776 4.608-17.92 0.512-4.608 0.512-9.728 0-14.336-1.024-3.072-2.048-6.144-3.584-9.216-1.024-2.56-2.56-5.12-4.608-6.656 0.512-14.336-0.512-28.16-2.56-42.496-2.048-12.8-4.608-25.6-8.192-38.4-4.608-13.312-11.776-26.112-20.48-36.864-4.096-5.632-8.704-10.24-14.336-14.848-13.312-10.24-28.672-17.92-44.544-22.528-8.704-2.56-17.92-3.584-27.136-3.584H711.68c4.608 15.36 7.68 31.232 9.728 47.104 2.048 15.872 3.584 31.744 3.584 47.616 5.632 9.728 9.216 20.48 11.264 31.232 1.536 11.776 1.536 23.552 0 34.816-1.536 13.312-5.12 26.112-10.24 38.4-5.632 11.776-13.824 22.528-24.064 31.232l-2.048 6.656v2.048c-3.072 7.68-6.144 14.848-9.216 22.528-6.144 14.848-16.384 28.16-29.184 37.888v13.824c0 6.144-1.536 12.288-4.096 17.408 5.12 4.096 10.752 7.68 16.896 9.728 10.24 4.608 20.48 7.68 31.232 10.752 10.752 3.072 20.992 7.168 31.232 12.288l31.232 14.336 17.92 7.68c15.36 6.144 30.208 14.848 43.008 25.088 15.36 13.824 26.624 31.232 33.28 51.2 3.584 12.288 5.632 24.576 6.656 36.864 1.536 5.12 2.048 10.24 2.048 15.36h2.048l55.296-113.664c-10.24-4.608-76.288-31.232-86.528-34.816h8.704z" fill="#A6C5F6" p-id="17634"></path><path d="M824.32 733.184c-4.096-12.288-10.752-23.04-20.48-31.232-10.24-7.68-20.992-14.336-33.28-19.456-12.288-5.12-65.536-31.232-79.36-33.28-12.8-3.584-25.088-7.68-36.864-12.8-10.752-4.608-20.48-10.752-29.184-18.432-6.656-6.144-11.776-13.312-15.36-21.504-3.072-7.168-5.12-14.848-5.12-22.528-0.512-12.8 1.536-25.6 6.144-37.376 1.536-4.096 4.096-7.68 6.656-10.752 3.072-3.072 6.144-5.632 9.216-8.192 4.096-3.072 8.192-6.144 11.776-9.728 4.096-4.096 7.68-8.704 9.728-13.824 2.56-6.144 5.12-12.288 7.68-18.944 2.56-6.144 4.096-14.848 6.144-22.528 4.096-2.048 7.68-4.608 10.752-8.192 4.096-4.096 7.68-9.216 9.728-14.336 3.584-7.68 5.632-15.872 6.144-24.064 1.024-6.656 1.024-13.312 0-19.456-1.024-4.608-2.56-8.704-4.608-13.312-1.024-3.584-3.584-6.656-6.656-9.216 0.512-19.456-0.512-38.912-3.584-58.368-2.048-17.92-6.144-35.328-11.776-52.736-5.632-18.432-13.824-35.84-25.088-51.2-5.632-7.68-12.288-14.336-19.968-19.968-8.192-7.168-17.408-13.312-27.648-17.92-10.752-5.12-22.016-9.216-33.792-12.8-12.288-3.584-24.576-5.12-37.376-5.12-10.24 0-20.992 1.024-31.232 3.072-10.752 2.048-20.992 5.632-31.232 9.728-26.112 10.752-48.64 29.184-64.512 52.736-9.216 14.848-16.384 30.72-20.48 47.616-8.704 34.304-12.288 69.632-10.752 104.96-3.584 4.608-6.144 9.728-8.192 15.36-2.048 5.12-4.096 10.24-5.12 15.872-0.512 7.68 0 14.848 2.56 22.016 1.536 6.656 4.096 13.312 8.192 18.944 2.56 3.584 5.632 7.168 8.704 10.24 3.072 2.048 6.144 4.096 9.728 5.12l6.656 22.528c2.048 6.144 4.608 12.288 7.168 18.432 2.048 5.632 5.632 10.24 9.728 14.336 7.168 6.144 14.336 12.8 20.48 19.456 6.656 7.168 10.24 16.896 10.752 26.624v20.48c0 6.144-1.024 12.288-3.072 18.432-2.56 6.144-6.144 12.288-10.752 17.408-6.144 7.168-13.824 13.312-22.016 17.92-12.288 8.704-26.112 15.36-40.96 18.944-15.872 4.608-83.968 29.696-98.304 35.328-13.824 4.608-27.136 12.288-38.4 21.504-11.264 10.752-18.432 25.088-20.48 40.96-4.096 18.432-5.12 37.376-2.56 56.32 0 12.8 3.584 25.088 10.752 35.328 11.264 5.632 86.016 76.288 98.304 78.848 93.696 19.456-14.336 24.064 207.872 34.816 206.336 8.704 248.32-80.384 289.792-110.08a48.64 48.64 0 0 0 19.456-10.752c3.584-7.168 6.144-15.36 6.656-23.552 1.536-10.752 2.048-22.016 2.048-32.768 0-11.264 0-2.048-1.536-13.312-0.512-9.728-2.56-18.944-5.12-28.16l2.048 2.56z m-264.704 69.632c-3.584 4.608-7.68 9.216-11.776 13.312-4.096 4.096-8.704 7.68-13.824 11.264-3.072 2.56-6.656 4.096-10.752 4.608-3.584-0.512-7.168-2.048-9.728-4.608-5.12-3.584-9.728-7.168-13.824-11.264-4.608-4.096-8.704-8.704-12.288-13.312-2.56-2.56-4.608-6.144-5.12-9.728 0-6.144 1.024-12.288 2.048-17.92 0-7.68 3.584-16.384 5.12-25.088 2.048-8.704 4.096-17.408 6.656-26.112s3.584-12.8 5.12-18.944c-4.608-4.096-8.704-8.704-12.288-13.824-2.56-3.584-3.584-7.168-3.584-11.776 0-4.096 1.536-8.192 3.584-11.776 2.048-3.584 4.608-7.168 7.68-9.728 3.584-3.584 7.168-7.168 11.776-10.752h33.792l11.776 10.752c3.584 3.072 6.144 6.656 8.192 10.752 2.56 3.584 3.584 7.68 3.584 11.776 0 5.12-2.048 10.24-4.608 14.336-3.584 4.608-8.192 9.216-12.8 13.312 0 5.632 3.072 12.288 4.608 20.992l5.632 26.112c0 8.192 3.584 16.384 4.608 24.064 1.024 5.12 1.536 10.24 2.048 15.36-0.512 4.096-2.048 7.68-5.12 10.24l-0.512-2.048z" fill="#4E8CEE" p-id="17635"></path><path d="M512 972.8c-253.952 0-460.8-206.848-460.8-460.8s206.848-460.8 460.8-460.8 460.8 206.848 460.8 460.8-206.848 460.8-460.8 460.8z m0-895.488c-239.616 0-434.688 195.072-434.688 434.688 0 239.616 195.072 434.688 434.688 434.688 239.616 0 434.688-195.072 434.688-434.688 0-239.616-195.072-434.688-434.688-434.688z" fill="#4E8CEE" p-id="17636"></path></svg>