<?xml version="1.0" standalone="no"?><!DOCTYPE svg PUBLIC "-//W3C//DTD SVG 1.1//EN" "http://www.w3.org/Graphics/SVG/1.1/DTD/svg11.dtd"><svg t="1585408221044" class="icon" viewBox="0 0 1024 1024" version="1.1" xmlns="http://www.w3.org/2000/svg" p-id="2440" width="64" height="64" xmlns:xlink="http://www.w3.org/1999/xlink"><defs><style type="text/css"></style></defs><path d="M506.4192 0L102.4 133.9904l2.048 521.728 0.4608 5.632c0.7168 3.4304 16.2816 86.272 94.0032 166.144 59.8016 61.5424 206.336 141.9264 268.9024 176.2304 9.8304 5.4272 17.152 9.4208 21.4016 11.8784l14.848 8.3968 18.2272-9.6768c36.5568-18.688 222.5152-115.712 291.6352-186.7264 77.824-79.872 93.3376-162.816 94.0032-166.2464l2.56-527.36L506.368 0z m339.8656 652.0832c-2.9184 12.1856-19.6608 72.192-76.3392 130.5088-57.6 59.2896-218.9824 145.4592-264.8064 169.3696l-7.8336-4.2496c-54.9888-30.208-201.0112-110.2336-254.3104-165.12-56.832-58.368-73.472-118.3232-76.3904-130.5088L164.7616 180.224 506.368 66.8672l341.7088 113.3568-1.8432 471.8592z" p-id="2441"></path><path d="M325.0176 712.3456h56.6272v-19.2h287.9488v19.2h56.1152v-133.5808H325.0176v133.5808z m56.6272-99.7376h287.9488v48.0768H381.6448v-48.0768zM508.928 254.6176l11.0592 23.3984H405.0944l22.6816-47.2576-53.1456-6.144a447.1296 447.1296 0 0 1-94.1568 146.944l9.216 32.0512 5.7856 23.3984a698.5216 698.5216 0 0 0 39.5776-45.2608v152.5248h49.2544v-15.7696h341.4016v-37.632H565.4016v-34.048h139.52V415.232H565.4016v-33.536h139.52V347.648H565.4016v-33.5872h152.576V278.016H576.512a374.3232 374.3232 0 0 0-28.0064-55.3984l-51.2 8.1408 11.5712 23.8592z m7.168 226.304H384.3584v-34.0992h131.84v34.048z m0-65.6384H384.3584v-33.536h131.84v33.536z m0-67.584H384.3584v-33.5872h131.84v33.5872z" p-id="2442"></path></svg>