<?xml version="1.0" standalone="no"?><!DOCTYPE svg PUBLIC "-//W3C//DTD SVG 1.1//EN" "http://www.w3.org/Graphics/SVG/1.1/DTD/svg11.dtd"><svg t="1604297981045" class="icon" viewBox="0 0 1024 1024" version="1.1" xmlns="http://www.w3.org/2000/svg" p-id="9605" xmlns:xlink="http://www.w3.org/1999/xlink" width="200" height="200"><defs><style type="text/css"></style></defs><path d="M973.568 651.648v139.605333c0 128.554667-208.384 232.746667-465.450667 232.746667S42.666667 919.808 42.666667 791.253333v-139.605333l0.213333 7.253333c7.68 125.141333 213.034667 225.450667 465.237333 225.450667 257.066667 0 465.493333-104.192 465.493334-232.704z m0-186.197333v139.648c0 128.512-208.384 232.704-465.450667 232.704S42.666667 733.610667 42.666667 605.098667v-139.648l0.213333 7.253333c7.68 125.184 213.034667 225.493333 465.237333 225.493333 257.066667 0 465.493333-104.192 465.493334-232.746666z m0-186.197334v139.648c0 128.554667-208.384 232.746667-465.450667 232.746667S42.666667 547.413333 42.666667 418.901333V279.253333l0.213333 7.253334C50.56 411.733333 255.914667 512 508.16 512c257.066667 0 465.493333-104.192 465.493333-232.746667zM508.16 465.493333C251.050667 465.493333 42.666667 361.258667 42.666667 232.746667 42.666667 104.192 251.050667 0 508.16 0c257.024 0 465.408 104.192 465.408 232.746667 0 128.512-208.384 232.704-465.450667 232.704z" fill="#149BD3" p-id="9606"></path></svg>